<?xml version="1.0" encoding="iso-8859-1"?><svg width="1024" height="1024" viewBox="0 0 1024 1024" xmlns="http://www.w3.org/2000/svg" xmlns:xlink="http://www.w3.org/1999/xlink"><svg viewBox="0 0 511.392 511.392" width="511.39" height="511.39" id="banner_1" y="512" xmlns="http://www.w3.org/2000/svg"><path d="M238.496 20.592l-7.872-13.92C195.936 26.368 156.96 41.2 121.344 41.104c-14.112 0-27.728-2.224-40.784-7.216a47.919 47.919 0 0 0-17.152-3.2C38 30.72 15.776 51.168 15.696 78.544V199.04c0 145.04 96.144 272.496 235.6 312.352h8.8c139.456-39.856 235.6-167.312 235.6-312.352V78.544c-.08-27.376-22.304-47.808-47.728-47.856-5.68 0-11.52 1.04-17.152 3.2-13.056 4.992-26.656 7.216-40.768 7.216-35.616.096-74.592-14.736-109.28-34.432-7.744-4.4-16.4-6.672-25.072-6.672s-17.328 2.272-25.088 6.672l7.888 13.92 7.888 13.92c3.056-1.728 6.192-2.512 9.312-2.512s6.24.784 9.328 2.528c37.472 21.12 80.72 38.48 125.024 38.576 17.488 0 35.136-2.8 52.208-9.344l5.712-1.072c8.24.032 15.712 6.704 15.728 15.856V199.04c0 130.752-86.672 245.664-212.4 281.584l4.4 15.376 4.4-15.392c-125.728-35.904-212.4-150.816-212.4-281.568V78.544c.016-9.152 7.472-15.824 15.728-15.872l5.712 1.088c17.072 6.528 34.72 9.344 52.208 9.344 44.304-.096 87.552-17.456 125.024-38.576l-7.872-13.936z" fill="#0065e1"/><path d="M255.696 65.904c-56.176 29.616-119.76 50.496-176 35.008v98.128c0 111.216 71.696 210.752 176 246.656 104.304-35.904 176-135.44 176-246.656v-98.128c-56.208 15.472-119.792-5.376-176-35.008zm80 190.096h-64v64h-32v-64h-64v-32h64v-64h32v64h64v32z" fill="#0065e1"/></svg><svg viewBox="0 0 512 512" width="512" height="512" id="banner_2" x="512" xmlns="http://www.w3.org/2000/svg"><path d="M464 240H48c-17.68 0-32 14.32-32 32 0 3.312.944 6.336 1.888 9.344 7.344 69.28 44.08 129.76 97.616 168.736-2.096 4.256-3.504 8.864-3.504 13.92 0 17.664 14.32 32 32 32h224c17.68 0 32-14.336 32-32 0-5.056-1.408-9.664-3.504-13.92 53.536-38.96 90.272-99.456 97.616-168.736.944-3.008 1.888-6.032 1.888-9.344 0-17.664-14.32-32-32-32zm-23.84 68.384c-11.696 41.12-37.216 77.664-71.872 102.88a15.982 15.982 0 0 1-9.408 3.056c-4.96 0-9.808-2.272-12.96-6.592-5.2-7.12-3.632-17.152 3.52-22.352 28.912-21.024 50.192-51.504 59.936-85.744 2.4-8.496 11.312-13.632 19.76-11.008 8.496 2.416 13.44 11.248 11.024 19.76z" fill="#0065e1"/><path d="M509.712 284.944c.912-2.96 2.256-7.152 2.288-12.944-.016-26.512-21.488-47.984-48-48h-85.488l114.8-114.8C505.776 96.752 512.016 80.256 512 63.936c.016-16.32-6.224-32.8-18.688-45.264C480.864 6.224 464.368-.016 448.064 0c-16.32-.016-32.8 6.224-45.264 18.688L197.488 224H48c-26.512.016-47.984 21.488-48 48 .032 5.792 1.376 9.984 2.288 12.944C10.144 354 45.504 414.512 97.104 455.728 96.56 458.4 96 461.056 96 464c.016 26.512 21.488 48 48 48h224c26.512 0 47.984-21.488 48-48 0-2.944-.56-5.6-1.088-8.272 51.584-41.2 86.96-101.712 94.8-170.784zM425.424 41.312c6.224-6.208 14.336-9.296 22.64-9.312 8.288.016 16.416 3.104 22.624 9.312 6.208 6.224 9.296 14.336 9.312 22.624-.016 8.288-3.104 16.416-9.312 22.624L333.248 224h-90.512L425.424 41.312zm-38.336 395.824c-6.288 4.576-8.368 13.008-4.944 20L384 464c-.016 8.832-7.168 15.984-16 16H144c-8.832-.016-15.984-7.168-16-16l1.872-6.864c3.424-6.976 1.344-15.424-4.944-20-50-36.4-84.272-92.832-91.12-157.488l-.624-3.072C32.16 273.52 31.968 272.192 32 272c.016-8.832 7.168-16 16-16H464c8.832 0 15.984 7.168 16 16 .032.192-.16 1.52-1.168 4.592l-.64 3.072c-6.832 64.64-41.104 121.072-91.104 157.472z" fill="#0065e1"/></svg><svg viewBox="0 0 512 512" width="512" height="512" id="banner_3" xmlns="http://www.w3.org/2000/svg"><path d="M176 32h160c8.832 0 16-7.168 16-16s-7.168-16-16-16H176c-8.832 0-16 7.168-16 16s7.168 16 16 16" fill="#4d4d4d"/><path d="M419.312 256H92.688C84.752 276.08 80 297.6 80 320c0 97.04 78.96 176 176 176s176-78.96 176-176c0-22.4-4.752-43.92-12.688-64zM224 416c-17.68 0-32-14.336-32-32 0-17.68 14.32-32 32-32s32 14.32 32 32c0 17.664-14.32 32-32 32zm80-64c-8.832 0-16-7.168-16-16s7.168-16 16-16 16 7.168 16 16-7.168 16-16 16z" fill="#0065e1"/><path d="M256 496v-16c-44.144 0-84.048-17.92-113.072-46.928C113.92 404.048 96 364.128 96 320c-.016-67.344 42.896-127.984 106.72-150.672l10.64-3.776A16.037 16.037 0 0 0 224 150.464V32h64v118.464c0 6.768 4.272 12.816 10.64 15.072l10.64 3.776C373.12 192.016 416.016 252.656 416 320c0 44.128-17.92 84.048-46.928 113.072C340.048 462.08 300.144 480 256 480v32c105.92-.032 191.968-86.096 192-192-.016-81.024-51.424-153.568-128-180.832V16c0-4.208-1.712-8.336-4.688-11.312A16.121 16.121 0 0 0 304 0h-96c-4.208 0-8.336 1.712-11.312 4.688S192 11.792 192 16v134.464h16l-5.36-15.072-10.64 3.776C115.424 166.432 64.016 238.976 64 320c.032 105.904 86.08 191.968 192 192v-16z" fill="#0065e1"/></svg><svg width="15" height="15" viewBox="0 0 15 15" id="calender" x="700.39" y="520" xmlns="http://www.w3.org/2000/svg"><defs><style>.dcls-1{fill:#999;fill-rule:evenodd}</style></defs><path id="dhttps:_www.flaticon.com_free-icon_calendar_833588" data-name="https://www.flaticon.com/free-icon/calendar_833588" class="dcls-1" d="M428.759 6151.57a.585.585 0 1 1-.586.58.584.584 0 0 1 .586-.58zm0 2.55a.584.584 0 0 1 .586.58.586.586 0 1 1-1.172 0 .583.583 0 0 1 .586-.58zm2.549-2.55a.585.585 0 1 1-.586.58.584.584 0 0 1 .586-.58zm3.105 1.75a.583.583 0 0 0 .586-.58v-3.22a2.346 2.346 0 0 0-2.343-2.35h-.762v-.58a.586.586 0 1 0-1.172 0v.58h-2.666v-.58a.586.586 0 1 0-1.172 0v.58h-2.637v-.58a.586.586 0 1 0-1.172 0v.58h-.733a2.346 2.346 0 0 0-2.343 2.35v9.14a2.344 2.344 0 0 0 2.343 2.34h7.5a.575.575 0 0 0 .422-.18l4.571-4.75a.575.575 0 0 0 .117-.63.583.583 0 0 0-.54-.36H431.6a2.347 2.347 0 0 0-2.344 2.35v2.4h-6.915a1.175 1.175 0 0 1-1.171-1.17v-9.14a1.177 1.177 0 0 1 1.171-1.18h.733v.59a.586.586 0 1 0 1.172 0v-.59h2.637v.59a.586.586 0 1 0 1.172 0v-.59h2.666v.59a.586.586 0 1 0 1.172 0v-.59h.762a1.178 1.178 0 0 1 1.172 1.18v3.22a.583.583 0 0 0 .586.58zm-3.984 4.11a1.178 1.178 0 0 1 1.172-1.18h1.435l-2.607 2.71v-1.53zm-6.768-5.86a.585.585 0 1 1-.586.58.583.583 0 0 1 .586-.58zm2.549 2.55a.583.583 0 0 1 .586.58.586.586 0 1 1-1.172 0 .583.583 0 0 1 .586-.58zm-2.549 2.54a.59.59 0 1 1-.586.59.592.592 0 0 1 .586-.59zm0-2.54a.583.583 0 0 1 .586.58.586.586 0 1 1-1.172 0 .583.583 0 0 1 .586-.58zm2.549 2.54a.59.59 0 1 1-.586.59.592.592 0 0 1 .586-.59zm0-5.09a.585.585 0 1 1-.586.58.583.583 0 0 1 .586-.58z" transform="translate(-420 -6146)"/></svg><svg width="11" height="9" viewBox="0 0 11 9" id="color_star" x="728.39" y="520" xmlns="http://www.w3.org/2000/svg"><path fill-rule="evenodd" fill="#F8920F" d="M5.975.279L7.122 2.43c.08.15.234.253.412.277l2.566.345c.45.06.629.571.304.865L8.547 5.591a.484.484 0 0 0-.157.449l.438 2.365c.077.414-.393.73-.795.534L5.738 7.823a.592.592 0 0 0-.51 0L2.934 8.939c-.402.196-.872-.12-.795-.534l.438-2.365a.484.484 0 0 0-.157-.449L.563 3.917c-.325-.294-.146-.805.304-.865l2.565-.345a.546.546 0 0 0 .413-.277L4.992.279c.201-.377.782-.377.983 0z"/></svg><svg width="15" height="16" viewBox="0 0 15 16" id="comment" x="685.39" y="520" xmlns="http://www.w3.org/2000/svg"><defs><style>.fcls-1{fill:#999;fill-rule:evenodd}</style></defs><path id="fhttps:_www.flaticon.com_free-icon_blank-squared-bubble_15504_term_comment_page_2_position_67" data-name="https://www.flaticon.com/free-icon/blank-squared-bubble_15504#term=comment&amp;page=2&amp;position=67" class="fcls-1" d="M580.5 6162.99l-2.355-4.26H575.2a2.141 2.141 0 0 1-2.2-2.08v-7.57a2.148 2.148 0 0 1 2.2-2.08h10.6a2.147 2.147 0 0 1 2.2 2.08v7.57a2.141 2.141 0 0 1-2.2 2.08h-2.943zm-5.3-14.83a1.017 1.017 0 0 0-1.092.92v7.57a1.017 1.017 0 0 0 1.092.93h3.579l1.718 3.11 1.717-3.11h3.586a1.017 1.017 0 0 0 1.092-.93v-7.57a1.017 1.017 0 0 0-1.092-.92h-10.6z" transform="translate(-573 -6147)"/></svg><svg width="27" height="36" viewBox="0 0 27 36" id="feature_1" x="592.39" y="512" xmlns="http://www.w3.org/2000/svg"><defs><style>.gcls-1{fill:#00c424;fill-rule:evenodd}</style></defs><path id="ghttps:_www.flaticon.com_free-icon_money-bag_841299" data-name="https://www.flaticon.com/free-icon/money-bag_841299" class="gcls-1" d="M546.311 1329.87l-1.342-1.36a5.364 5.364 0 0 0 1.646-3.86v-.36a3.115 3.115 0 1 0-6.23 0v.36a5.329 5.329 0 0 0 1.646 3.86l-1.342 1.36a1.064 1.064 0 0 0 0 1.49 1.03 1.03 0 0 0 1.468 0l1.343-1.36 1.343 1.36a1.03 1.03 0 0 0 1.468 0 1.064 1.064 0 0 0 0-1.49zm-1.773-5.22a1.408 1.408 0 1 1-2.076 0v-.36a1.038 1.038 0 1 1 2.076 0v.36zm10.279-3.5l-5.437-7.03a3.169 3.169 0 0 0-1.722-5.79 8.343 8.343 0 0 0 1.034-4.04v-1.24a1.044 1.044 0 0 0-1.038-1.05h-8.308a1.044 1.044 0 0 0-1.038 1.05v1.24a8.343 8.343 0 0 0 1.034 4.04 3.169 3.169 0 0 0-1.722 5.79l-5.437 7.03a10.233 10.233 0 0 0-2.183 6.32v.4a10.169 10.169 0 0 0 4.442 8.43 9.857 9.857 0 0 0 5.533 1.7h7.05a9.857 9.857 0 0 0 5.533-1.7 10.169 10.169 0 0 0 4.442-8.43v-.4a10.233 10.233 0 0 0-2.183-6.32zm-14.432-17.04h6.23v.18a6.164 6.164 0 0 1-1.488 4.04h-.589v-1.06a1.038 1.038 0 1 0-2.076 0v1.06h-.589a6.164 6.164 0 0 1-1.488-4.04v-.18zm-1.039 6.33h8.308a1.05 1.05 0 0 1 0 2.1h-8.308a1.05 1.05 0 0 1 0-2.1zm15.577 17.43a8.028 8.028 0 0 1-3.517 6.67 7.8 7.8 0 0 1-4.381 1.35h-7.05a7.8 7.8 0 0 1-4.381-1.35 8.028 8.028 0 0 1-3.517-6.67v-.4a8.144 8.144 0 0 1 1.731-5.01v-.01l6.038-7.8h7.3l6.038 7.8v.01a8.144 8.144 0 0 1 1.731 5.01v.4z" transform="translate(-530 -1302)"/></svg><svg width="31" height="36" viewBox="0 0 31 36" id="feature_2" x="619.39" y="512" xmlns="http://www.w3.org/2000/svg"><defs><style>.hcls-1{fill:#00c424;fill-rule:evenodd}</style></defs><path id="hhttps:_www.flaticon.com_free-icon_charity_841338" data-name="https://www.flaticon.com/free-icon/charity_841338" class="hcls-1" d="M1036.92 1312.79a7.487 7.487 0 0 0 .81-3.41 7.232 7.232 0 1 0-14.46 0 7.487 7.487 0 0 0 .81 3.41 11.717 11.717 0 0 0-9.08 11.5v1.49a12.8 12.8 0 0 0 3.66 9.01 3.649 3.649 0 0 0 6.1-1.48c1.39 1.28 3.23 2.81 5.06 4.43a1.019 1.019 0 0 0 1.36 0c1.84-1.63 3.67-3.15 5.06-4.43a3.649 3.649 0 0 0 6.1 1.48 12.8 12.8 0 0 0 3.66-9.01v-1.49a11.717 11.717 0 0 0-9.08-11.5zm-6.42-8.68a5.276 5.276 0 1 1-5.17 5.27 5.224 5.224 0 0 1 5.17-5.27zm6.5 25.47v.01c-.36.42-.77.86-1.26 1.33-1.38 1.35-3.17 2.82-5.24 4.63-4.93-4.31-8.21-6.68-8.21-9.83 0-2.32 1.54-4.07 3.59-4.07a3.312 3.312 0 0 1 2.75 1.56 6.093 6.093 0 0 1 .87 1.76 1.047 1.047 0 0 0 1 .77 1.024 1.024 0 0 0 .99-.77 6.633 6.633 0 0 1 .88-1.76 3.312 3.312 0 0 1 2.75-1.56 3.772 3.772 0 0 1 3.59 4.07 5.794 5.794 0 0 1-1.71 3.86zm6.93-3.8a10.67 10.67 0 0 1-3.05 7.52 1.6 1.6 0 0 1-1.15.48 1.669 1.669 0 0 1-1.22-2.75 8.06 8.06 0 0 0 2.26-5.31c0-3.37-2.34-6.18-5.65-6.18a5.349 5.349 0 0 0-4.47 2.49c-.05.07-.1.15-.15.22-.05-.07-.1-.15-.15-.22a5.349 5.349 0 0 0-4.47-2.49c-3.31 0-5.65 2.81-5.65 6.18a8 8 0 0 0 2.23 5.27 1.674 1.674 0 0 1-1.19 2.79 1.6 1.6 0 0 1-1.15-.48 10.67 10.67 0 0 1-3.05-7.52v-1.49a9.606 9.606 0 0 1 8.42-9.59 7.1 7.1 0 0 0 10.02 0 9.606 9.606 0 0 1 8.42 9.59v1.49z" transform="translate(-1015 -1302)"/></svg><svg width="31" height="34" viewBox="0 0 31 34" id="feature_3" x="511.39" y="550" xmlns="http://www.w3.org/2000/svg"><defs><style>.icls-1{fill:#00c424;fill-rule:evenodd}</style></defs><path id="ihttps:_www.flaticon.com_free-icon_cardiogram_841310" data-name="https://www.flaticon.com/free-icon/cardiogram_841310" class="icls-1" d="M558.884 1549.51l-3.806-7.35c.03-.38.045-.76.045-1.15a13.569 13.569 0 1 0-27.124 0 14.094 14.094 0 0 0 3.875 9.76v9.23a.986.986 0 0 0 .969 1h13.562a.981.981 0 0 0 .685-.29 1.012 1.012 0 0 0 .277-.71v-3.05h4.85a2.951 2.951 0 0 0 2.906-2.99v-2.99h2.906a.96.96 0 0 0 .831-.48 1.019 1.019 0 0 0 .024-.98zm-4.729-.53a.986.986 0 0 0-.969 1v3.98a.987.987 0 0 1-.969 1h-5.812a.941.941 0 0 0-.685.29 1.012 1.012 0 0 0-.284.7v3.06h-11.624v-8.65a.986.986 0 0 0-.3-.72 12.025 12.025 0 0 1-3.577-8.63 11.631 11.631 0 1 1 23.249 0q0 .63-.063 1.26a1.032 1.032 0 0 0 .108.57l3.184 6.14h-2.26zm-3.875-7.97h-1.443a5.115 5.115 0 0 0 .474-2.16 5.031 5.031 0 0 0-1.177-3.3 4.106 4.106 0 0 0-3.145-1.44 4.055 4.055 0 0 0-3.353 1.82 4.055 4.055 0 0 0-3.353-1.82 4.106 4.106 0 0 0-3.145 1.44 5.031 5.031 0 0 0-1.177 3.3 5.115 5.115 0 0 0 .474 2.16h-1.592a1 1 0 0 0 0 1.99h2.928a63.406 63.406 0 0 0 5.23 4.81.959.959 0 0 0 1.269 0 63.406 63.406 0 0 0 5.23-4.81h2.78a1 1 0 0 0 0-1.99zm-8.644 4.74c-1.276-1.13-2.432-2.1-3.347-2.96.028-.03.056-.05.083-.08l1.252-1.29 1.253 1.29a.953.953 0 0 0 1.369 0l1.253-1.29 1.252 1.29a1.18 1.18 0 0 0 .167.14c-.902.85-2.04 1.8-3.282 2.9zm4.96-4.74h-.759l-1.653-1.7a.948.948 0 0 0-1.37 0l-1.253 1.29-1.252-1.29a.948.948 0 0 0-1.37 0l-1.654 1.7h-.609a3.674 3.674 0 0 1-.778-2.16 2.528 2.528 0 0 1 2.385-2.75c1.768 0 2.395 2.17 2.421 2.26a.961.961 0 0 0 1.866 0c.006-.02.628-2.26 2.419-2.26a2.528 2.528 0 0 1 2.385 2.75 3.674 3.674 0 0 1-.774 2.16z" transform="translate(-528 -1527)"/></svg><svg width="38" height="36" viewBox="0 0 38 36" id="feature_4" x="554.39" y="512" xmlns="http://www.w3.org/2000/svg"><defs><style>.jcls-1{fill:#00c424;fill-rule:evenodd}</style></defs><path id="jhttps:_www.flaticon.com_free-icon_piggy-bank_841328" data-name="https://www.flaticon.com/free-icon/piggy-bank_841328" class="jcls-1" d="M1037.01 1547.83l-1.44-1.46a5.621 5.621 0 0 0 1.77-4.11v-.39a3.34 3.34 0 1 0-6.68 0v.39a5.6 5.6 0 0 0 1.77 4.11l-1.44 1.46a1.123 1.123 0 0 0 0 1.59 1.1 1.1 0 0 0 1.57 0l1.44-1.45 1.44 1.45a1.1 1.1 0 0 0 1.57 0 1.123 1.123 0 0 0 0-1.59zm-1.9-5.57a1.5 1.5 0 1 1-2.22 0v-.39a1.11 1.11 0 1 1 2.22 0v.39zm-12.24-1.51a1.125 1.125 0 1 1-1.12 1.12 1.116 1.116 0 0 1 1.12-1.12zm30.13-7.88a1.115 1.115 0 1 0-2.23 0 5.589 5.589 0 0 1-2.82 4.9 11.583 11.583 0 0 0-.95-1.04 17.459 17.459 0 0 0-7.73-4.29 5.725 5.725 0 0 0 .3-1.81 5.57 5.57 0 1 0-10.83 1.83c-.43.12-.86.25-1.28.4l-1.04-1.05a7.81 7.81 0 0 0-11.09 0 1.136 1.136 0 0 0-.33.8 1.112 1.112 0 0 0 .33.79l4.62 4.6a12.666 12.666 0 0 0-1.69 2.75 3.462 3.462 0 0 0-2.23.97 3.339 3.339 0 0 0-1.03 2.4v4.5a3.345 3.345 0 0 0 1.03 2.41 3.411 3.411 0 0 0 2.38.97h1.13a15.16 15.16 0 0 0 4.44 4.02v3.86a1.116 1.116 0 0 0 1.11 1.12h4.46a1.116 1.116 0 0 0 1.11-1.12v-1.4a20.793 20.793 0 0 0 6.68 0v1.4a1.116 1.116 0 0 0 1.11 1.12h4.46a1.116 1.116 0 0 0 1.11-1.12v-3.83c4.24-2.57 6.75-6.56 6.75-10.8a11.341 11.341 0 0 0-1.53-5.63 7.888 7.888 0 0 0 3.76-6.75zm-19-5.62a3.375 3.375 0 1 1-3.34 3.38 3.361 3.361 0 0 1 3.34-3.38zm8.37 27.16a1.131 1.131 0 0 0-.58.99v3.35h-2.22v-1.64a1.165 1.165 0 0 0-.42-.89 1.121 1.121 0 0 0-.95-.21 18.336 18.336 0 0 1-8.4 0 1.093 1.093 0 0 0-.94.21 1.143 1.143 0 0 0-.43.89v1.64h-2.22v-3.38a1.131 1.131 0 0 0-.58-.99 12.843 12.843 0 0 1-4.57-4.12 1.09 1.09 0 0 0-.93-.51h-1.72a1.187 1.187 0 0 1-1.18-1.13v-4.5a1.185 1.185 0 0 1 1.18-1.12h.61a1.11 1.11 0 0 0 1.04-.74 10.43 10.43 0 0 1 2.23-3.55 1.136 1.136 0 0 0-.03-1.57l-4.49-4.46a5.591 5.591 0 0 1 7.08.72l1.54 1.55a1.085 1.085 0 0 0 1.18.26 18.055 18.055 0 0 1 2.37-.74 5.55 5.55 0 0 0 4.06 1.78 5.483 5.483 0 0 0 4.07-1.8c6.11 1.4 10.48 5.86 10.48 10.8 0 3.59-2.31 7.02-6.18 9.16z" transform="translate(-1015 -1525)"/></svg><svg width="35" height="8" viewBox="0 0 35 8" id="left" x="685.39" y="512" xmlns="http://www.w3.org/2000/svg"><path fill-rule="evenodd" fill="#2A2A2A" d="M.727 7.618h32.909c.401 0 .725-.311.725-.694 0-.383-.324-.693-.725-.693H3.209l6.996-4.274v3.164c0 .383.325.693.726.693.401 0 .725-.31.725-.693V.691a.69.69 0 0 0-.377-.609.764.764 0 0 0-.739.024L.337 6.339a.68.68 0 0 0-.306.779c.091.297.374.5.696.5z"/></svg><svg width="17" height="16.97" viewBox="0 0 17 16.97" id="passion_1" x="668.39" y="520" xmlns="http://www.w3.org/2000/svg"><defs><style>.lcls-1{fill:#7f7f7f;fill-rule:evenodd}</style></defs><path id="lhttps:_www.flaticon.com_free-icon_goal_1666577_term_goal_page_1_position_33" data-name="https://www.flaticon.com/free-icon/goal_1666577#term=goal&amp;page=1&amp;position=33" class="lcls-1" d="M398.787 3780.49l-.794 2.61a.652.652 0 0 0 .16.65.664.664 0 0 0 .476.2 1.066 1.066 0 0 0 .177-.02l2.68-.74a.669.669 0 0 0 .292-.17l3.638-3.63a1.985 1.985 0 0 0 0-2.81 2.006 2.006 0 0 0-2.817 0l-3.645 3.63a.656.656 0 0 0-.167.28zm5.69-2.97a.666.666 0 0 1 0 .94l-.128.12-.939-.93.128-.13a.663.663 0 0 1 .939 0zm-4.467 3.51l2.459-2.45.94.94-2.446 2.44-1.348.37zm-2.212-1.72a.667.667 0 0 1-.618.71 4.506 4.506 0 1 0 4.823 4.7.664.664 0 0 1 1.327.06 5.852 5.852 0 0 1-5.838 5.57 5.832 5.832 0 0 1-.4-11.65.659.659 0 0 1 .708.61zm-2.2 5.21a1.894 1.894 0 0 0 3.524.95.665.665 0 0 1 1.144.68 3.223 3.223 0 0 1-6-1.63 3.213 3.213 0 0 1 1.7-2.84.663.663 0 1 1 .626 1.17 1.891 1.891 0 0 0-.992 1.67zm10.4 0a8.5 8.5 0 1 1-8.5-8.49 8.54 8.54 0 0 1 2.149.27.666.666 0 1 1-.329 1.29 7.273 7.273 0 0 0-1.82-.23 7.155 7.155 0 1 0 7.171 7.16 7.088 7.088 0 0 0-.214-1.74.66.66 0 0 1 .167-.63.669.669 0 0 1 1.123.3 8.527 8.527 0 0 1 .255 2.07z" transform="translate(-389 -3776.03)"/></svg><svg width="18" height="18" viewBox="0 0 18 18" id="passion_2" x="650.39" y="520" xmlns="http://www.w3.org/2000/svg"><defs><style>.mcls-1{fill:#7f7f7f;fill-rule:evenodd}</style></defs><path id="mhttps:_www.flaticon.com_free-icon_success_1152929" data-name="https://www.flaticon.com/free-icon/success_1152929" class="mcls-1" d="M565.061 3780.65h-2.3v-1.77h3.71a.53.53 0 0 0 .527-.53.542.542 0 0 0-.171-.39l-1.023-1.02 1.039-1.04a.521.521 0 0 0 .114-.57.526.526 0 0 0-.487-.33h-4.237a.53.53 0 0 0-.527.53v5.12h-.6a1.942 1.942 0 0 0-1.94 1.94v1.1a1.889 1.889 0 0 0-.885-.22h-.565a1.942 1.942 0 0 0-1.939 1.94v1.1a1.888 1.888 0 0 0-.885-.21h-.565a1.942 1.942 0 0 0-1.94 1.94v1.1a1.888 1.888 0 0 0-.884-.22h-.565a1.942 1.942 0 0 0-1.94 1.94v1.41a.53.53 0 0 0 .528.53h16.946a.53.53 0 0 0 .527-.53v-9.88a1.942 1.942 0 0 0-1.938-1.94zm-2.3-4.6h2.439l-.512.52a.519.519 0 0 0 0 .74l.512.51h-2.436v-1.77zm-12.71 15.01a.88.88 0 0 1 .885-.88h.564a.88.88 0 0 1 .884.88v.89h-2.334v-.89zm3.389 0v-2.82a.889.889 0 0 1 .885-.89h.565a.889.889 0 0 1 .885.89v3.71h-2.335v-.89zm3.389-2.82v-2.83a.881.881 0 0 1 .885-.88h.565a.88.88 0 0 1 .885.88v6.54h-2.335v-3.71zm9.114 3.71h-5.724v-9.36a.889.889 0 0 1 .885-.89h3.954a.889.889 0 0 1 .885.89v9.36z" transform="translate(-549 -3775)"/></svg><svg width="13" height="13" viewBox="0 0 13 13" id="play" x="715.39" y="520" xmlns="http://www.w3.org/2000/svg"><path fill-rule="evenodd" fill="#FE9C6F" d="M13.001 6.5L.003 13.002V-.002L13.001 6.5z"/></svg><svg width="43" height="38" viewBox="0 0 43 38" id="quate" x="511.39" y="512" xmlns="http://www.w3.org/2000/svg"><path fill-rule="evenodd" fill="#E6EAED" d="M34.75 37.954c4.548 0 8.234-3.766 8.234-8.411 0-4.646-3.686-8.411-8.234-8.411-8.233 0-2.744-16.26 8.234-16.26V.947c-19.592 0-27.271 37.007-8.234 37.007zm-23.721 0c4.548 0 8.234-3.766 8.234-8.411 0-4.646-3.686-8.411-8.234-8.411-8.233 0-2.744-16.26 8.234-16.26V.947c-19.592 0-27.271 37.007-8.234 37.007z"/></svg><svg width="35" height="8" viewBox="0 0 35 8" id="right" x="650.39" y="512" xmlns="http://www.w3.org/2000/svg"><path fill-rule="evenodd" fill="#FF8B23" d="M34.273.383H1.364c-.401 0-.725.31-.725.693 0 .383.324.693.725.693h30.427l-6.996 4.274V2.879c0-.383-.325-.694-.726-.694-.401 0-.725.311-.725.694V7.31c0 .253.144.486.377.607a.75.75 0 0 0 .739-.023L34.663 1.66a.677.677 0 0 0 .306-.778.722.722 0 0 0-.696-.499z"/></svg><svg width="11" height="9" viewBox="0 0 11 9" id="star" x="739.39" y="520" xmlns="http://www.w3.org/2000/svg"><path fill-rule="evenodd" fill="#CACACA" d="M6.406.279L7.553 2.43c.08.15.234.253.413.277l2.565.345c.45.06.629.571.304.865L8.978 5.591a.484.484 0 0 0-.157.449l.438 2.365c.077.414-.393.73-.795.534L6.17 7.823a.592.592 0 0 0-.51 0L3.365 8.939c-.402.196-.872-.12-.795-.534l.438-2.365a.484.484 0 0 0-.157-.449L.994 3.917c-.325-.294-.146-.805.304-.865l2.566-.345a.546.546 0 0 0 .412-.277L5.423.279c.201-.377.782-.377.983 0z"/></svg></svg>