<svg xmlns="http://www.w3.org/2000/svg" viewBox="0 0 511.392 511.392"><path d="M238.496 20.592l-7.872-13.92C195.936 26.368 156.96 41.2 121.344 41.104c-14.112 0-27.728-2.224-40.784-7.216a47.919 47.919 0 0 0-17.152-3.2C38 30.72 15.776 51.168 15.696 78.544V199.04c0 145.04 96.144 272.496 235.6 312.352h8.8c139.456-39.856 235.6-167.312 235.6-312.352V78.544c-.08-27.376-22.304-47.808-47.728-47.856-5.68 0-11.52 1.04-17.152 3.2-13.056 4.992-26.656 7.216-40.768 7.216-35.616.096-74.592-14.736-109.28-34.432-7.744-4.4-16.4-6.672-25.072-6.672s-17.328 2.272-25.088 6.672l7.888 13.92 7.888 13.92c3.056-1.728 6.192-2.512 9.312-2.512s6.24.784 9.328 2.528c37.472 21.12 80.72 38.48 125.024 38.576 17.488 0 35.136-2.8 52.208-9.344l5.712-1.072c8.24.032 15.712 6.704 15.728 15.856V199.04c0 130.752-86.672 245.664-212.4 281.584l4.4 15.376 4.4-15.392c-125.728-35.904-212.4-150.816-212.4-281.568V78.544c.016-9.152 7.472-15.824 15.728-15.872l5.712 1.088c17.072 6.528 34.72 9.344 52.208 9.344 44.304-.096 87.552-17.456 125.024-38.576l-7.872-13.936z" fill="#0065e1"/><path d="M255.696 65.904c-56.176 29.616-119.76 50.496-176 35.008v98.128c0 111.216 71.696 210.752 176 246.656 104.304-35.904 176-135.44 176-246.656v-98.128c-56.208 15.472-119.792-5.376-176-35.008zm80 190.096h-64v64h-32v-64h-64v-32h64v-64h32v64h64v32z" fill="#0065e1"/></svg>