<svg xmlns="http://www.w3.org/2000/svg" viewBox="0 0 512 512"><path d="M176 32h160c8.832 0 16-7.168 16-16s-7.168-16-16-16H176c-8.832 0-16 7.168-16 16s7.168 16 16 16" fill="#4d4d4d"/><path d="M419.312 256H92.688C84.752 276.08 80 297.6 80 320c0 97.04 78.96 176 176 176s176-78.96 176-176c0-22.4-4.752-43.92-12.688-64zM224 416c-17.68 0-32-14.336-32-32 0-17.68 14.32-32 32-32s32 14.32 32 32c0 17.664-14.32 32-32 32zm80-64c-8.832 0-16-7.168-16-16s7.168-16 16-16 16 7.168 16 16-7.168 16-16 16z" fill="#0065e1"/><path d="M256 496v-16c-44.144 0-84.048-17.92-113.072-46.928C113.92 404.048 96 364.128 96 320c-.016-67.344 42.896-127.984 106.72-150.672l10.64-3.776A16.037 16.037 0 0 0 224 150.464V32h64v118.464c0 6.768 4.272 12.816 10.64 15.072l10.64 3.776C373.12 192.016 416.016 252.656 416 320c0 44.128-17.92 84.048-46.928 113.072C340.048 462.08 300.144 480 256 480v32c105.92-.032 191.968-86.096 192-192-.016-81.024-51.424-153.568-128-180.832V16c0-4.208-1.712-8.336-4.688-11.312A16.121 16.121 0 0 0 304 0h-96c-4.208 0-8.336 1.712-11.312 4.688S192 11.792 192 16v134.464h16l-5.36-15.072-10.64 3.776C115.424 166.432 64.016 238.976 64 320c.032 105.904 86.08 191.968 192 192v-16z" fill="#0065e1"/></svg>