<svg xmlns="http://www.w3.org/2000/svg" viewBox="0 0 512 512"><path d="M464 240H48c-17.68 0-32 14.32-32 32 0 3.312.944 6.336 1.888 9.344 7.344 69.28 44.08 129.76 97.616 168.736-2.096 4.256-3.504 8.864-3.504 13.92 0 17.664 14.32 32 32 32h224c17.68 0 32-14.336 32-32 0-5.056-1.408-9.664-3.504-13.92 53.536-38.96 90.272-99.456 97.616-168.736.944-3.008 1.888-6.032 1.888-9.344 0-17.664-14.32-32-32-32zm-23.84 68.384c-11.696 41.12-37.216 77.664-71.872 102.88a15.982 15.982 0 0 1-9.408 3.056c-4.96 0-9.808-2.272-12.96-6.592-5.2-7.12-3.632-17.152 3.52-22.352 28.912-21.024 50.192-51.504 59.936-85.744 2.4-8.496 11.312-13.632 19.76-11.008 8.496 2.416 13.44 11.248 11.024 19.76z" fill="#0065e1"/><path d="M509.712 284.944c.912-2.96 2.256-7.152 2.288-12.944-.016-26.512-21.488-47.984-48-48h-85.488l114.8-114.8C505.776 96.752 512.016 80.256 512 63.936c.016-16.32-6.224-32.8-18.688-45.264C480.864 6.224 464.368-.016 448.064 0c-16.32-.016-32.8 6.224-45.264 18.688L197.488 224H48c-26.512.016-47.984 21.488-48 48 .032 5.792 1.376 9.984 2.288 12.944C10.144 354 45.504 414.512 97.104 455.728 96.56 458.4 96 461.056 96 464c.016 26.512 21.488 48 48 48h224c26.512 0 47.984-21.488 48-48 0-2.944-.56-5.6-1.088-8.272 51.584-41.2 86.96-101.712 94.8-170.784zM425.424 41.312c6.224-6.208 14.336-9.296 22.64-9.312 8.288.016 16.416 3.104 22.624 9.312 6.208 6.224 9.296 14.336 9.312 22.624-.016 8.288-3.104 16.416-9.312 22.624L333.248 224h-90.512L425.424 41.312zm-38.336 395.824c-6.288 4.576-8.368 13.008-4.944 20L384 464c-.016 8.832-7.168 15.984-16 16H144c-8.832-.016-15.984-7.168-16-16l1.872-6.864c3.424-6.976 1.344-15.424-4.944-20-50-36.4-84.272-92.832-91.12-157.488l-.624-3.072C32.16 273.52 31.968 272.192 32 272c.016-8.832 7.168-16 16-16h416c8.832 0 15.984 7.168 16 16 .032.192-.16 1.52-1.168 4.592l-.64 3.072c-6.832 64.64-41.104 121.072-91.104 157.472z" fill="#0065e1"/></svg>