<svg xmlns="http://www.w3.org/2000/svg" width="15" height="15"><path data-name="https://www.flaticon.com/free-icon/calendar_833588" d="M8.759 5.57a.585.585 0 1 1-.586.58.584.584 0 0 1 .586-.58zm0 2.55a.584.584 0 0 1 .586.58.586.586 0 1 1-1.172 0 .583.583 0 0 1 .586-.58zm2.549-2.55a.585.585 0 1 1-.586.58.584.584 0 0 1 .586-.58zm3.105 1.75a.583.583 0 0 0 .586-.58V3.52a2.346 2.346 0 0 0-2.343-2.35h-.762V.59a.586.586 0 1 0-1.172 0v.58H8.056V.59a.586.586 0 1 0-1.172 0v.58H4.247V.59a.586.586 0 1 0-1.172 0v.58h-.733A2.346 2.346 0 0 0-.001 3.52v9.14A2.344 2.344 0 0 0 2.342 15h7.5a.575.575 0 0 0 .422-.18l4.571-4.75a.575.575 0 0 0 .117-.63.583.583 0 0 0-.54-.36H11.6a2.347 2.347 0 0 0-2.344 2.35v2.4H2.341a1.175 1.175 0 0 1-1.171-1.17V3.52a1.177 1.177 0 0 1 1.171-1.18h.733v.59a.586.586 0 1 0 1.172 0v-.59h2.637v.59a.586.586 0 1 0 1.172 0v-.59h2.666v.59a.586.586 0 1 0 1.172 0v-.59h.762a1.178 1.178 0 0 1 1.172 1.18v3.22a.583.583 0 0 0 .586.58zm-3.984 4.11a1.178 1.178 0 0 1 1.172-1.18h1.435l-2.607 2.71v-1.53zM3.661 5.57a.585.585 0 1 1-.586.58.583.583 0 0 1 .586-.58zM6.21 8.12a.583.583 0 0 1 .586.58.586.586 0 1 1-1.172 0 .583.583 0 0 1 .586-.58zm-2.549 2.54a.59.59 0 1 1-.586.59.592.592 0 0 1 .586-.59zm0-2.54a.583.583 0 0 1 .586.58.586.586 0 1 1-1.172 0 .583.583 0 0 1 .586-.58zm2.549 2.54a.59.59 0 1 1-.586.59.592.592 0 0 1 .586-.59zm0-5.09a.585.585 0 1 1-.586.58.583.583 0 0 1 .586-.58z" fill="#999" fill-rule="evenodd"/></svg>