<svg xmlns="http://www.w3.org/2000/svg" width="15" height="16"><path data-name="https://www.flaticon.com/free-icon/blank-squared-bubble_15504#term=comment&amp;page=2&amp;position=67" d="M7.5 15.99l-2.355-4.26H2.2A2.141 2.141 0 0 1 0 9.65V2.08A2.148 2.148 0 0 1 2.2 0h10.6A2.147 2.147 0 0 1 15 2.08v7.57a2.141 2.141 0 0 1-2.2 2.08H9.857zM2.2 1.16a1.017 1.017 0 0 0-1.092.92v7.57a1.017 1.017 0 0 0 1.092.93h3.579l1.718 3.11 1.717-3.11H12.8a1.017 1.017 0 0 0 1.092-.93V2.08a1.017 1.017 0 0 0-1.092-.92H2.2z" fill="#999" fill-rule="evenodd"/></svg>