<svg xmlns="http://www.w3.org/2000/svg" width="27" height="36"><path data-name="https://www.flaticon.com/free-icon/money-bag_841299" d="M16.311 27.87l-1.342-1.36a5.364 5.364 0 0 0 1.646-3.86v-.36a3.115 3.115 0 1 0-6.23 0v.36a5.329 5.329 0 0 0 1.646 3.86l-1.342 1.36a1.064 1.064 0 0 0 0 1.49 1.03 1.03 0 0 0 1.468 0L13.5 28l1.343 1.36a1.03 1.03 0 0 0 1.468 0 1.064 1.064 0 0 0 0-1.49zm-1.773-5.22a1.408 1.408 0 1 1-2.076 0v-.36a1.038 1.038 0 1 1 2.076 0v.36zm10.279-3.5l-5.437-7.03a3.169 3.169 0 0 0-1.722-5.79 8.343 8.343 0 0 0 1.034-4.04V1.05A1.044 1.044 0 0 0 17.654 0H9.346a1.044 1.044 0 0 0-1.038 1.05v1.24a8.343 8.343 0 0 0 1.034 4.04 3.169 3.169 0 0 0-1.722 5.79l-5.437 7.03A10.233 10.233 0 0 0 0 25.47v.4a10.169 10.169 0 0 0 4.442 8.43A9.857 9.857 0 0 0 9.975 36h7.05a9.857 9.857 0 0 0 5.533-1.7A10.169 10.169 0 0 0 27 25.87v-.4a10.233 10.233 0 0 0-2.183-6.32zM10.385 2.11h6.23v.18a6.164 6.164 0 0 1-1.488 4.04h-.589V5.27a1.038 1.038 0 1 0-2.076 0v1.06h-.589a6.164 6.164 0 0 1-1.488-4.04v-.18zM9.346 8.44h8.308a1.05 1.05 0 0 1 0 2.1H9.346a1.05 1.05 0 0 1 0-2.1zm15.577 17.43a8.028 8.028 0 0 1-3.517 6.67 7.8 7.8 0 0 1-4.381 1.35h-7.05a7.8 7.8 0 0 1-4.381-1.35 8.028 8.028 0 0 1-3.517-6.67v-.4a8.144 8.144 0 0 1 1.731-5.01v-.01l6.038-7.8h7.3l6.038 7.8v.01a8.144 8.144 0 0 1 1.731 5.01v.4z" fill="#00c424" fill-rule="evenodd"/></svg>