<svg xmlns="http://www.w3.org/2000/svg" width="31" height="36"><path data-name="https://www.flaticon.com/free-icon/charity_841338" d="M21.92 10.79a7.487 7.487 0 0 0 .81-3.41 7.232 7.232 0 1 0-14.46 0 7.487 7.487 0 0 0 .81 3.41A11.717 11.717 0 0 0 0 22.29v1.49a12.8 12.8 0 0 0 3.66 9.01 3.649 3.649 0 0 0 6.1-1.48c1.39 1.28 3.23 2.81 5.06 4.43a1.019 1.019 0 0 0 1.36 0c1.84-1.63 3.67-3.15 5.06-4.43a3.649 3.649 0 0 0 6.1 1.48A12.8 12.8 0 0 0 31 23.78v-1.49a11.717 11.717 0 0 0-9.08-11.5zM15.5 2.11a5.276 5.276 0 1 1-5.17 5.27 5.224 5.224 0 0 1 5.17-5.27zM22 27.58v.01c-.36.42-.77.86-1.26 1.33-1.38 1.35-3.17 2.82-5.24 4.63-4.93-4.31-8.21-6.68-8.21-9.83 0-2.32 1.54-4.07 3.59-4.07a3.312 3.312 0 0 1 2.75 1.56 6.093 6.093 0 0 1 .87 1.76 1.047 1.047 0 0 0 1 .77 1.024 1.024 0 0 0 .99-.77 6.633 6.633 0 0 1 .88-1.76 3.312 3.312 0 0 1 2.75-1.56 3.772 3.772 0 0 1 3.59 4.07A5.794 5.794 0 0 1 22 27.58zm6.93-3.8a10.67 10.67 0 0 1-3.05 7.52 1.6 1.6 0 0 1-1.15.48 1.669 1.669 0 0 1-1.22-2.75 8.06 8.06 0 0 0 2.26-5.31c0-3.37-2.34-6.18-5.65-6.18a5.349 5.349 0 0 0-4.47 2.49c-.05.07-.1.15-.15.22-.05-.07-.1-.15-.15-.22a5.349 5.349 0 0 0-4.47-2.49c-3.31 0-5.65 2.81-5.65 6.18a8 8 0 0 0 2.23 5.27 1.674 1.674 0 0 1-1.19 2.79 1.6 1.6 0 0 1-1.15-.48 10.67 10.67 0 0 1-3.05-7.52v-1.49a9.606 9.606 0 0 1 8.42-9.59 7.1 7.1 0 0 0 10.02 0 9.606 9.606 0 0 1 8.42 9.59v1.49z" fill="#00c424" fill-rule="evenodd"/></svg>