<svg xmlns="http://www.w3.org/2000/svg" width="17" height="16.97"><path data-name="https://www.flaticon.com/free-icon/goal_1666577#term=goal&amp;page=1&amp;position=33" d="M9.787 4.46l-.794 2.61a.652.652 0 0 0 .16.65.664.664 0 0 0 .476.2 1.066 1.066 0 0 0 .177-.02l2.68-.74a.669.669 0 0 0 .292-.17l3.638-3.63a1.985 1.985 0 0 0 0-2.81 2.006 2.006 0 0 0-2.817 0L9.954 4.18a.656.656 0 0 0-.167.28zm5.69-2.97a.666.666 0 0 1 0 .94l-.128.12-.939-.93.128-.13a.663.663 0 0 1 .939 0zM11.01 5l2.459-2.45.94.94-2.446 2.44-1.348.37zM8.798 3.28a.667.667 0 0 1-.618.71 4.506 4.506 0 1 0 4.823 4.7.664.664 0 0 1 1.327.06 5.852 5.852 0 0 1-5.838 5.57 5.832 5.832 0 0 1-.4-11.65.659.659 0 0 1 .708.61zm-2.2 5.21a1.894 1.894 0 0 0 3.524.95.665.665 0 0 1 1.144.68 3.223 3.223 0 0 1-6-1.63 3.213 3.213 0 0 1 1.7-2.84.663.663 0 1 1 .626 1.17A1.891 1.891 0 0 0 6.6 8.49zm10.4 0A8.5 8.5 0 1 1 8.498 0a8.54 8.54 0 0 1 2.149.27.666.666 0 1 1-.329 1.29 7.273 7.273 0 0 0-1.82-.23 7.155 7.155 0 1 0 7.171 7.16 7.088 7.088 0 0 0-.214-1.74.66.66 0 0 1 .167-.63.669.669 0 0 1 1.123.3A8.527 8.527 0 0 1 17 8.49z" fill="#7f7f7f" fill-rule="evenodd"/></svg>