<svg xmlns="http://www.w3.org/2000/svg" width="18" height="18"><path data-name="https://www.flaticon.com/free-icon/success_1152929" d="M16.061 5.65h-2.3V3.88h3.71a.53.53 0 0 0 .527-.53.542.542 0 0 0-.171-.39l-1.023-1.02L17.843.9a.521.521 0 0 0 .114-.57.526.526 0 0 0-.487-.33h-4.237a.53.53 0 0 0-.527.53v5.12h-.6a1.942 1.942 0 0 0-1.94 1.94v1.1a1.889 1.889 0 0 0-.885-.22h-.565a1.942 1.942 0 0 0-1.939 1.94v1.1a1.888 1.888 0 0 0-.885-.21h-.565a1.942 1.942 0 0 0-1.94 1.94v1.1a1.888 1.888 0 0 0-.884-.22h-.565a1.942 1.942 0 0 0-1.94 1.94v1.41a.53.53 0 0 0 .528.53h16.946a.53.53 0 0 0 .527-.53V7.59a1.942 1.942 0 0 0-1.938-1.94zm-2.3-4.6H16.2l-.512.52a.519.519 0 0 0 0 .74l.512.51h-2.436V1.05zM1.051 16.06a.88.88 0 0 1 .885-.88H2.5a.88.88 0 0 1 .884.88v.89H1.05v-.89zm3.389 0v-2.82a.889.889 0 0 1 .885-.89h.565a.889.889 0 0 1 .885.89v3.71H4.44v-.89zm3.389-2.82v-2.83a.881.881 0 0 1 .885-.88h.565a.88.88 0 0 1 .885.88v6.54H7.829v-3.71zm9.114 3.71h-5.724V7.59a.889.889 0 0 1 .885-.89h3.954a.889.889 0 0 1 .885.89v9.36z" fill="#7f7f7f" fill-rule="evenodd"/></svg>