<?xml version="1.0" encoding="utf-8"?><svg width="114" height="111" viewBox="0 0 114 111" xmlns="http://www.w3.org/2000/svg" xmlns:xlink="http://www.w3.org/1999/xlink"><svg aria-hidden="true" data-prefix="fas" data-icon="at" class="asvg-inline--fa afa-at afa-w-16" viewBox="0 0 512 512" width="32" height="32" id="at" y="64" xmlns="http://www.w3.org/2000/svg"><path fill="currentColor" d="M256 8C118.941 8 8 118.919 8 256c0 137.059 110.919 248 248 248 48.154 0 95.342-14.14 135.408-40.223 12.005-7.815 14.625-24.288 5.552-35.372l-10.177-12.433c-7.671-9.371-21.179-11.667-31.373-5.129C325.92 429.757 291.314 440 256 440c-101.458 0-184-82.542-184-184S154.542 72 256 72c100.139 0 184 57.619 184 160 0 38.786-21.093 79.742-58.17 83.693-17.349-.454-16.91-12.857-13.476-30.024l23.433-121.11C394.653 149.75 383.308 136 368.225 136h-44.981a13.518 13.518 0 00-13.432 11.993l-.01.092c-14.697-17.901-40.448-21.775-59.971-21.775-74.58 0-137.831 62.234-137.831 151.46 0 65.303 36.785 105.87 96 105.87 26.984 0 57.369-15.637 74.991-38.333 9.522 34.104 40.613 34.103 70.71 34.103C462.609 379.41 504 307.798 504 232 504 95.653 394.023 8 256 8zm-21.68 304.43c-22.249 0-36.07-15.623-36.07-40.771 0-44.993 30.779-72.729 58.63-72.729 22.292 0 35.601 15.241 35.601 40.77 0 45.061-33.875 72.73-58.161 72.73z"/></svg><svg width="15" height="15" viewBox="0 0 15 15" id="calender" y="96" xmlns="http://www.w3.org/2000/svg"><defs><style>.bcls-1{fill:#999;fill-rule:evenodd}</style></defs><path id="bhttps:_www.flaticon.com_free-icon_calendar_833588" data-name="https://www.flaticon.com/free-icon/calendar_833588" class="bcls-1" d="M428.759 6151.57a.585.585 0 11-.586.58.584.584 0 01.586-.58zm0 2.55a.584.584 0 01.586.58.586.586 0 11-1.172 0 .583.583 0 01.586-.58zm2.549-2.55a.585.585 0 11-.586.58.584.584 0 01.586-.58zm3.105 1.75a.583.583 0 00.586-.58v-3.22a2.346 2.346 0 00-2.343-2.35h-.762v-.58a.586.586 0 10-1.172 0v.58h-2.666v-.58a.586.586 0 10-1.172 0v.58h-2.637v-.58a.586.586 0 10-1.172 0v.58h-.733a2.346 2.346 0 00-2.343 2.35v9.14a2.344 2.344 0 002.343 2.34h7.5a.575.575 0 00.422-.18l4.571-4.75a.575.575 0 00.117-.63.583.583 0 00-.54-.36H431.6a2.347 2.347 0 00-2.344 2.35v2.4h-6.915a1.175 1.175 0 01-1.171-1.17v-9.14a1.177 1.177 0 011.171-1.18h.733v.59a.586.586 0 101.172 0v-.59h2.637v.59a.586.586 0 101.172 0v-.59h2.666v.59a.586.586 0 101.172 0v-.59h.762a1.178 1.178 0 011.172 1.18v3.22a.583.583 0 00.586.58zm-3.984 4.11a1.178 1.178 0 011.172-1.18h1.435l-2.607 2.71v-1.53zm-6.768-5.86a.585.585 0 11-.586.58.583.583 0 01.586-.58zm2.549 2.55a.583.583 0 01.586.58.586.586 0 11-1.172 0 .583.583 0 01.586-.58zm-2.549 2.54a.59.59 0 11-.586.59.592.592 0 01.586-.59zm0-2.54a.583.583 0 01.586.58.586.586 0 11-1.172 0 .583.583 0 01.586-.58zm2.549 2.54a.59.59 0 11-.586.59.592.592 0 01.586-.59zm0-5.09a.585.585 0 11-.586.58.583.583 0 01.586-.58z" transform="translate(-420 -6146)"/></svg><svg aria-hidden="true" data-prefix="fas" data-icon="chevron-right" class="csvg-inline--fa cfa-chevron-right cfa-w-10" viewBox="0 0 320 512" width="20" height="32" id="chevron-right" x="61.34" xmlns="http://www.w3.org/2000/svg"><path fill="currentColor" d="M285.476 272.971L91.132 467.314c-9.373 9.373-24.569 9.373-33.941 0l-22.667-22.667c-9.357-9.357-9.375-24.522-.04-33.901L188.505 256 34.484 101.255c-9.335-9.379-9.317-24.544.04-33.901l22.667-22.667c9.373-9.373 24.569-9.373 33.941 0L285.475 239.03c9.373 9.372 9.373 24.568.001 33.941z"/></svg><svg width="15" height="16" viewBox="0 0 15 16" id="comment" x="91" y="64" xmlns="http://www.w3.org/2000/svg"><defs><style>.dcls-1{fill:#999;fill-rule:evenodd}</style></defs><path id="dhttps:_www.flaticon.com_free-icon_blank-squared-bubble_15504_term_comment_page_2_position_67" data-name="https://www.flaticon.com/free-icon/blank-squared-bubble_15504#term=comment&amp;page=2&amp;position=67" class="dcls-1" d="M580.5 6162.99l-2.355-4.26H575.2a2.141 2.141 0 01-2.2-2.08v-7.57a2.148 2.148 0 012.2-2.08h10.6a2.147 2.147 0 012.2 2.08v7.57a2.141 2.141 0 01-2.2 2.08h-2.943zm-5.3-14.83a1.017 1.017 0 00-1.092.92v7.57a1.017 1.017 0 001.092.93h3.579l1.718 3.11 1.717-3.11h3.586a1.017 1.017 0 001.092-.93v-7.57a1.017 1.017 0 00-1.092-.92h-10.6z" transform="translate(-573 -6147)"/></svg><svg aria-hidden="true" data-prefix="fas" data-icon="compass" class="esvg-inline--fa efa-compass efa-w-16" viewBox="0 0 496 512" width="31" height="32" id="compass" x="20" y="32" xmlns="http://www.w3.org/2000/svg"><path fill="currentColor" d="M225.38 233.37c-12.5 12.5-12.5 32.76 0 45.25 12.49 12.5 32.76 12.5 45.25 0 12.5-12.5 12.5-32.76 0-45.25-12.5-12.49-32.76-12.49-45.25 0zM248 8C111.03 8 0 119.03 0 256s111.03 248 248 248 248-111.03 248-248S384.97 8 248 8zm126.14 148.05L308.17 300.4a31.938 31.938 0 01-15.77 15.77l-144.34 65.97c-16.65 7.61-33.81-9.55-26.2-26.2l65.98-144.35a31.938 31.938 0 0115.77-15.77l144.34-65.97c16.65-7.6 33.8 9.55 26.19 26.2z"/></svg><svg aria-hidden="true" data-prefix="fas" data-icon="envelope" class="fsvg-inline--fa ffa-envelope ffa-w-16" viewBox="0 0 512 512" width="32" height="32" id="envelope" x="81.34" xmlns="http://www.w3.org/2000/svg"><path fill="currentColor" d="M502.3 190.8c3.9-3.1 9.7-.2 9.7 4.7V400c0 26.5-21.5 48-48 48H48c-26.5 0-48-21.5-48-48V195.6c0-5 5.7-7.8 9.7-4.7 22.4 17.4 52.1 39.5 154.1 113.6 21.1 15.4 56.7 47.8 92.2 47.6 35.7.3 72-32.8 92.3-47.6 102-74.1 131.6-96.3 154-113.7zM256 320c23.2.4 56.6-29.2 73.4-41.4 132.7-96.3 142.8-104.7 173.4-128.7 5.8-4.5 9.2-11.5 9.2-18.9v-19c0-26.5-21.5-48-48-48H48C21.5 64 0 85.5 0 112v19c0 7.4 3.4 14.3 9.2 18.9 30.6 23.9 40.7 32.4 173.4 128.7 16.8 12.2 50.2 41.8 73.4 41.4z"/></svg><svg width="29.18" height="32" viewBox="0 0 31 34" id="head" x="81.34" y="32" xmlns="http://www.w3.org/2000/svg"><defs><style>.gcls-1{fill:#00c424;fill-rule:evenodd}</style></defs><path id="ghttps:_www.flaticon.com_free-icon_cardiogram_841310" data-name="https://www.flaticon.com/free-icon/cardiogram_841310" class="gcls-1" d="M558.884 1549.51l-3.806-7.35c.03-.38.045-.76.045-1.15a13.569 13.569 0 10-27.124 0 14.094 14.094 0 003.875 9.76v9.23a.986.986 0 00.969 1h13.562a.981.981 0 00.685-.29 1.012 1.012 0 00.277-.71v-3.05h4.85a2.951 2.951 0 002.906-2.99v-2.99h2.906a.96.96 0 00.831-.48 1.019 1.019 0 00.024-.98zm-4.729-.53a.986.986 0 00-.969 1v3.98a.987.987 0 01-.969 1h-5.812a.941.941 0 00-.685.29 1.012 1.012 0 00-.284.7v3.06h-11.624v-8.65a.986.986 0 00-.3-.72 12.025 12.025 0 01-3.577-8.63 11.631 11.631 0 1123.249 0q0 .63-.063 1.26a1.032 1.032 0 00.108.57l3.184 6.14h-2.26zm-3.875-7.97h-1.443a5.115 5.115 0 00.474-2.16 5.031 5.031 0 00-1.177-3.3 4.106 4.106 0 00-3.145-1.44 4.055 4.055 0 00-3.353 1.82 4.055 4.055 0 00-3.353-1.82 4.106 4.106 0 00-3.145 1.44 5.031 5.031 0 00-1.177 3.3 5.115 5.115 0 00.474 2.16h-1.592a1 1 0 000 1.99h2.928a63.406 63.406 0 005.23 4.81.959.959 0 001.269 0 63.406 63.406 0 005.23-4.81h2.78a1 1 0 000-1.99zm-8.644 4.74c-1.276-1.13-2.432-2.1-3.347-2.96.028-.03.056-.05.083-.08l1.252-1.29 1.253 1.29a.953.953 0 001.369 0l1.253-1.29 1.252 1.29a1.18 1.18 0 00.167.14c-.902.85-2.04 1.8-3.282 2.9zm4.96-4.74h-.759l-1.653-1.7a.948.948 0 00-1.37 0l-1.253 1.29-1.252-1.29a.948.948 0 00-1.37 0l-1.654 1.7h-.609a3.674 3.674 0 01-.778-2.16 2.528 2.528 0 012.385-2.75c1.768 0 2.395 2.17 2.421 2.26a.961.961 0 001.866 0c.006-.02.628-2.26 2.419-2.26a2.528 2.528 0 012.385 2.75 3.674 3.674 0 01-.774 2.16z" transform="translate(-528 -1527)"/></svg><svg width="27.56" height="32" viewBox="0 0 31 36" id="heart" x="33.78" xmlns="http://www.w3.org/2000/svg"><defs><style>.hcls-1{fill:#00c424;fill-rule:evenodd}</style></defs><path id="hhttps:_www.flaticon.com_free-icon_charity_841338" data-name="https://www.flaticon.com/free-icon/charity_841338" class="hcls-1" d="M1036.92 1312.79a7.487 7.487 0 00.81-3.41 7.232 7.232 0 10-14.46 0 7.487 7.487 0 00.81 3.41 11.717 11.717 0 00-9.08 11.5v1.49a12.8 12.8 0 003.66 9.01 3.649 3.649 0 006.1-1.48c1.39 1.28 3.23 2.81 5.06 4.43a1.019 1.019 0 001.36 0c1.84-1.63 3.67-3.15 5.06-4.43a3.649 3.649 0 006.1 1.48 12.8 12.8 0 003.66-9.01v-1.49a11.717 11.717 0 00-9.08-11.5zm-6.42-8.68a5.276 5.276 0 11-5.17 5.27 5.224 5.224 0 015.17-5.27zm6.5 25.47v.01c-.36.42-.77.86-1.26 1.33-1.38 1.35-3.17 2.82-5.24 4.63-4.93-4.31-8.21-6.68-8.21-9.83 0-2.32 1.54-4.07 3.59-4.07a3.312 3.312 0 012.75 1.56 6.093 6.093 0 01.87 1.76 1.047 1.047 0 001 .77 1.024 1.024 0 00.99-.77 6.633 6.633 0 01.88-1.76 3.312 3.312 0 012.75-1.56 3.772 3.772 0 013.59 4.07 5.794 5.794 0 01-1.71 3.86zm6.93-3.8a10.67 10.67 0 01-3.05 7.52 1.6 1.6 0 01-1.15.48 1.669 1.669 0 01-1.22-2.75 8.06 8.06 0 002.26-5.31c0-3.37-2.34-6.18-5.65-6.18a5.349 5.349 0 00-4.47 2.49c-.05.07-.1.15-.15.22-.05-.07-.1-.15-.15-.22a5.349 5.349 0 00-4.47-2.49c-3.31 0-5.65 2.81-5.65 6.18a8 8 0 002.23 5.27 1.674 1.674 0 01-1.19 2.79 1.6 1.6 0 01-1.15-.48 10.67 10.67 0 01-3.05-7.52v-1.49a9.606 9.606 0 018.42-9.59 7.1 7.1 0 0010.02 0 9.606 9.606 0 018.42 9.59v1.49z" transform="translate(-1015 -1302)"/></svg><svg aria-hidden="true" data-prefix="fas" data-icon="mobile" class="isvg-inline--fa ifa-mobile ifa-w-10" viewBox="0 0 320 512" width="20" height="32" id="mobile" x="51" y="32" xmlns="http://www.w3.org/2000/svg"><path fill="currentColor" d="M272 0H48C21.5 0 0 21.5 0 48v416c0 26.5 21.5 48 48 48h224c26.5 0 48-21.5 48-48V48c0-26.5-21.5-48-48-48zM160 480c-17.7 0-32-14.3-32-32s14.3-32 32-32 32 14.3 32 32-14.3 32-32 32z"/></svg><svg width="24" height="32" viewBox="0 0 27 36" id="money-box" x="32" y="64" xmlns="http://www.w3.org/2000/svg"><defs><style>.jcls-1{fill:#00c424;fill-rule:evenodd}</style></defs><path id="jhttps:_www.flaticon.com_free-icon_money-bag_841299" data-name="https://www.flaticon.com/free-icon/money-bag_841299" class="jcls-1" d="M546.311 1329.87l-1.342-1.36a5.364 5.364 0 001.646-3.86v-.36a3.115 3.115 0 10-6.23 0v.36a5.329 5.329 0 001.646 3.86l-1.342 1.36a1.064 1.064 0 000 1.49 1.03 1.03 0 001.468 0l1.343-1.36 1.343 1.36a1.03 1.03 0 001.468 0 1.064 1.064 0 000-1.49zm-1.773-5.22a1.408 1.408 0 11-2.076 0v-.36a1.038 1.038 0 112.076 0v.36zm10.279-3.5l-5.437-7.03a3.169 3.169 0 00-1.722-5.79 8.343 8.343 0 001.034-4.04v-1.24a1.044 1.044 0 00-1.038-1.05h-8.308a1.044 1.044 0 00-1.038 1.05v1.24a8.343 8.343 0 001.034 4.04 3.169 3.169 0 00-1.722 5.79l-5.437 7.03a10.233 10.233 0 00-2.183 6.32v.4a10.169 10.169 0 004.442 8.43 9.857 9.857 0 005.533 1.7h7.05a9.857 9.857 0 005.533-1.7 10.169 10.169 0 004.442-8.43v-.4a10.233 10.233 0 00-2.183-6.32zm-14.432-17.04h6.23v.18a6.164 6.164 0 01-1.488 4.04h-.589v-1.06a1.038 1.038 0 10-2.076 0v1.06h-.589a6.164 6.164 0 01-1.488-4.04v-.18zm-1.039 6.33h8.308a1.05 1.05 0 010 2.1h-8.308a1.05 1.05 0 010-2.1zm15.577 17.43a8.028 8.028 0 01-3.517 6.67 7.8 7.8 0 01-4.381 1.35h-7.05a7.8 7.8 0 01-4.381-1.35 8.028 8.028 0 01-3.517-6.67v-.4a8.144 8.144 0 011.731-5.01v-.01l6.038-7.8h7.3l6.038 7.8v.01a8.144 8.144 0 011.731 5.01v.4z" transform="translate(-530 -1302)"/></svg><svg width="33.78" height="32" viewBox="0 0 38 36" id="pig" xmlns="http://www.w3.org/2000/svg"><defs><style>.kcls-1{fill:#00c424;fill-rule:evenodd}</style></defs><path id="khttps:_www.flaticon.com_free-icon_piggy-bank_841328" data-name="https://www.flaticon.com/free-icon/piggy-bank_841328" class="kcls-1" d="M1037.01 1547.83l-1.44-1.46a5.621 5.621 0 001.77-4.11v-.39a3.34 3.34 0 10-6.68 0v.39a5.6 5.6 0 001.77 4.11l-1.44 1.46a1.123 1.123 0 000 1.59 1.1 1.1 0 001.57 0l1.44-1.45 1.44 1.45a1.1 1.1 0 001.57 0 1.123 1.123 0 000-1.59zm-1.9-5.57a1.5 1.5 0 11-2.22 0v-.39a1.11 1.11 0 112.22 0v.39zm-12.24-1.51a1.125 1.125 0 11-1.12 1.12 1.116 1.116 0 011.12-1.12zm30.13-7.88a1.115 1.115 0 10-2.23 0 5.589 5.589 0 01-2.82 4.9 11.583 11.583 0 00-.95-1.04 17.459 17.459 0 00-7.73-4.29 5.725 5.725 0 00.3-1.81 5.57 5.57 0 10-10.83 1.83c-.43.12-.86.25-1.28.4l-1.04-1.05a7.81 7.81 0 00-11.09 0 1.136 1.136 0 00-.33.8 1.112 1.112 0 00.33.79l4.62 4.6a12.666 12.666 0 00-1.69 2.75 3.462 3.462 0 00-2.23.97 3.339 3.339 0 00-1.03 2.4v4.5a3.345 3.345 0 001.03 2.41 3.411 3.411 0 002.38.97h1.13a15.16 15.16 0 004.44 4.02v3.86a1.116 1.116 0 001.11 1.12h4.46a1.116 1.116 0 001.11-1.12v-1.4a20.793 20.793 0 006.68 0v1.4a1.116 1.116 0 001.11 1.12h4.46a1.116 1.116 0 001.11-1.12v-3.83c4.24-2.57 6.75-6.56 6.75-10.8a11.341 11.341 0 00-1.53-5.63 7.888 7.888 0 003.76-6.75zm-19-5.62a3.375 3.375 0 11-3.34 3.38 3.361 3.361 0 013.34-3.38zm8.37 27.16a1.131 1.131 0 00-.58.99v3.35h-2.22v-1.64a1.165 1.165 0 00-.42-.89 1.121 1.121 0 00-.95-.21 18.336 18.336 0 01-8.4 0 1.093 1.093 0 00-.94.21 1.143 1.143 0 00-.43.89v1.64h-2.22v-3.38a1.131 1.131 0 00-.58-.99 12.843 12.843 0 01-4.57-4.12 1.09 1.09 0 00-.93-.51h-1.72a1.187 1.187 0 01-1.18-1.13v-4.5a1.185 1.185 0 011.18-1.12h.61a1.11 1.11 0 001.04-.74 10.43 10.43 0 012.23-3.55 1.136 1.136 0 00-.03-1.57l-4.49-4.46a5.591 5.591 0 017.08.72l1.54 1.55a1.085 1.085 0 001.18.26 18.055 18.055 0 012.37-.74 5.55 5.55 0 004.06 1.78 5.483 5.483 0 004.07-1.8c6.11 1.4 10.48 5.86 10.48 10.8 0 3.59-2.31 7.02-6.18 9.16z" transform="translate(-1015 -1525)"/></svg><svg width="18" height="18" viewBox="0 0 18 18" id="signal" x="56" y="64" xmlns="http://www.w3.org/2000/svg"><defs><style>.lcls-1{fill:#7f7f7f;fill-rule:evenodd}</style></defs><path id="lhttps:_www.flaticon.com_free-icon_success_1152929" data-name="https://www.flaticon.com/free-icon/success_1152929" class="lcls-1" d="M565.061 3780.65h-2.3v-1.77h3.71a.53.53 0 00.527-.53.542.542 0 00-.171-.39l-1.023-1.02 1.039-1.04a.521.521 0 00.114-.57.526.526 0 00-.487-.33h-4.237a.53.53 0 00-.527.53v5.12h-.6a1.942 1.942 0 00-1.94 1.94v1.1a1.889 1.889 0 00-.885-.22h-.565a1.942 1.942 0 00-1.939 1.94v1.1a1.888 1.888 0 00-.885-.21h-.565a1.942 1.942 0 00-1.94 1.94v1.1a1.888 1.888 0 00-.884-.22h-.565a1.942 1.942 0 00-1.94 1.94v1.41a.53.53 0 00.528.53h16.946a.53.53 0 00.527-.53v-9.88a1.942 1.942 0 00-1.938-1.94zm-2.3-4.6h2.439l-.512.52a.519.519 0 000 .74l.512.51h-2.436v-1.77zm-12.71 15.01a.88.88 0 01.885-.88h.564a.88.88 0 01.884.88v.89h-2.334v-.89zm3.389 0v-2.82a.889.889 0 01.885-.89h.565a.889.889 0 01.885.89v3.71h-2.335v-.89zm3.389-2.82v-2.83a.881.881 0 01.885-.88h.565a.88.88 0 01.885.88v6.54h-2.335v-3.71zm9.114 3.71h-5.724v-9.36a.889.889 0 01.885-.89h3.954a.889.889 0 01.885.89v9.36z" transform="translate(-549 -3775)"/></svg><svg aria-hidden="true" data-prefix="fas" data-icon="sort-down" class="msvg-inline--fa mfa-sort-down mfa-w-10" viewBox="0 0 320 512" width="20" height="32" id="sort-down" y="32" xmlns="http://www.w3.org/2000/svg"><path fill="currentColor" d="M41 288h238c21.4 0 32.1 25.9 17 41L177 448c-9.4 9.4-24.6 9.4-33.9 0L24 329c-15.1-15.1-4.4-41 17-41z"/></svg><svg width="17" height="16.97" viewBox="0 0 17 16.97" id="target" x="74" y="64" xmlns="http://www.w3.org/2000/svg"><defs><style>.ncls-1{fill:#7f7f7f;fill-rule:evenodd}</style></defs><path id="nhttps:_www.flaticon.com_free-icon_goal_1666577_term_goal_page_1_position_33" data-name="https://www.flaticon.com/free-icon/goal_1666577#term=goal&amp;page=1&amp;position=33" class="ncls-1" d="M398.787 3780.49l-.794 2.61a.652.652 0 00.16.65.664.664 0 00.476.2 1.066 1.066 0 00.177-.02l2.68-.74a.669.669 0 00.292-.17l3.638-3.63a1.985 1.985 0 000-2.81 2.006 2.006 0 00-2.817 0l-3.645 3.63a.656.656 0 00-.167.28zm5.69-2.97a.666.666 0 010 .94l-.128.12-.939-.93.128-.13a.663.663 0 01.939 0zm-4.467 3.51l2.459-2.45.94.94-2.446 2.44-1.348.37zm-2.212-1.72a.667.667 0 01-.618.71 4.506 4.506 0 104.823 4.7.664.664 0 011.327.06 5.852 5.852 0 01-5.838 5.57 5.832 5.832 0 01-.4-11.65.659.659 0 01.708.61zm-2.2 5.21a1.894 1.894 0 003.524.95.665.665 0 011.144.68 3.223 3.223 0 01-6-1.63 3.213 3.213 0 011.7-2.84.663.663 0 11.626 1.17 1.891 1.891 0 00-.992 1.67zm10.4 0a8.5 8.5 0 11-8.5-8.49 8.54 8.54 0 012.149.27.666.666 0 11-.329 1.29 7.273 7.273 0 00-1.82-.23 7.155 7.155 0 107.171 7.16 7.088 7.088 0 00-.214-1.74.66.66 0 01.167-.63.669.669 0 011.123.3 8.527 8.527 0 01.255 2.07z" transform="translate(-389 -3776.03)"/></svg></svg>