<?xml version="1.0" encoding="UTF-8"?>
<svg xmlns="http://www.w3.org/2000/svg" xmlns:xlink="http://www.w3.org/1999/xlink" width="22pt" height="25pt" viewBox="0 0 22 25" version="1.1">
<g id="surface1">
<path style=" stroke:none;fill-rule:nonzero;fill:white;fill-opacity:1;" d="M 19.644531 1.5625 L 2.355469 1.5625 C 1.054688 1.5625 0 2.613281 0 3.90625 L 0 21.09375 C 0 22.386719 1.054688 23.4375 2.355469 23.4375 L 9.097656 23.4375 L 9.097656 16 L 6.003906 16 L 6.003906 12.5 L 9.097656 12.5 L 9.097656 9.832031 C 9.097656 6.796875 10.914062 5.121094 13.695312 5.121094 C 15.03125 5.121094 16.421875 5.359375 16.421875 5.359375 L 16.421875 8.335938 L 14.886719 8.335938 C 13.375 8.335938 12.902344 9.269531 12.902344 10.226562 L 12.902344 12.5 L 16.28125 12.5 L 15.742188 16 L 12.902344 16 L 12.902344 23.4375 L 19.644531 23.4375 C 20.945312 23.4375 22 22.386719 22 21.09375 L 22 3.90625 C 22 2.613281 20.945312 1.5625 19.644531 1.5625 Z M 19.644531 1.5625 "/>
</g>
</svg>
