<?xml version="1.0" encoding="UTF-8"?>
<svg xmlns="http://www.w3.org/2000/svg" xmlns:xlink="http://www.w3.org/1999/xlink" width="22pt" height="25pt" viewBox="0 0 22 25" version="1.1">
<g id="surface1">
<path style=" stroke:none;fill-rule:nonzero;fill:white;fill-opacity:1;" d="M 11.003906 6.882812 C 7.882812 6.882812 5.363281 9.390625 5.363281 12.496094 C 5.363281 15.601562 7.882812 18.105469 11.003906 18.105469 C 14.128906 18.105469 16.648438 15.601562 16.648438 12.496094 C 16.648438 9.390625 14.128906 6.882812 11.003906 6.882812 Z M 11.003906 16.140625 C 8.988281 16.140625 7.335938 14.507812 7.335938 12.496094 C 7.335938 10.484375 8.980469 8.847656 11.003906 8.847656 C 13.027344 8.847656 14.671875 10.484375 14.671875 12.496094 C 14.671875 14.507812 13.023438 16.140625 11.003906 16.140625 Z M 18.195312 6.65625 C 18.195312 7.382812 17.605469 7.964844 16.878906 7.964844 C 16.144531 7.964844 15.5625 7.378906 15.5625 6.65625 C 15.5625 5.933594 16.152344 5.347656 16.878906 5.347656 C 17.605469 5.347656 18.195312 5.933594 18.195312 6.65625 Z M 21.929688 7.984375 C 21.847656 6.230469 21.445312 4.679688 20.152344 3.398438 C 18.867188 2.117188 17.304688 1.71875 15.542969 1.628906 C 13.726562 1.527344 8.28125 1.527344 6.460938 1.628906 C 4.703125 1.714844 3.144531 2.113281 1.851562 3.394531 C 0.558594 4.671875 0.160156 6.226562 0.0742188 7.976562 C -0.03125 9.785156 -0.03125 15.199219 0.0742188 17.007812 C 0.15625 18.757812 0.558594 20.3125 1.851562 21.59375 C 3.144531 22.871094 4.699219 23.273438 6.460938 23.359375 C 8.28125 23.460938 13.726562 23.460938 15.542969 23.359375 C 17.304688 23.277344 18.867188 22.875 20.152344 21.59375 C 21.441406 20.3125 21.84375 18.761719 21.929688 17.007812 C 22.035156 15.199219 22.035156 9.789062 21.929688 7.984375 Z M 19.582031 18.945312 C 19.199219 19.902344 18.460938 20.640625 17.492188 21.023438 C 16.042969 21.597656 12.605469 21.464844 11.003906 21.464844 C 9.402344 21.464844 5.960938 21.59375 4.519531 21.023438 C 3.554688 20.644531 2.8125 19.90625 2.425781 18.945312 C 1.851562 17.503906 1.984375 14.085938 1.984375 12.496094 C 1.984375 10.902344 1.855469 7.480469 2.425781 6.046875 C 2.808594 5.089844 3.550781 4.351562 4.519531 3.964844 C 5.964844 3.394531 9.402344 3.527344 11.003906 3.527344 C 12.605469 3.527344 16.046875 3.398438 17.492188 3.964844 C 18.453125 4.347656 19.195312 5.082031 19.582031 6.046875 C 20.160156 7.484375 20.027344 10.902344 20.027344 12.496094 C 20.027344 14.085938 20.160156 17.507812 19.582031 18.945312 Z M 19.582031 18.945312 "/>
</g>
</svg>
