<?xml version="1.0" encoding="UTF-8"?>
<svg xmlns="http://www.w3.org/2000/svg" xmlns:xlink="http://www.w3.org/1999/xlink" width="22pt" height="25pt" viewBox="0 0 22 25" version="1.1">
<g id="surface1">
<path style=" stroke:none;fill-rule:nonzero;fill:white;fill-opacity:1;" d="M 20.855469 14.640625 C 21 13.953125 21.085938 13.226562 21.085938 12.5 C 21.085938 6.957031 16.574219 2.476562 11.003906 2.476562 C 10.273438 2.476562 9.546875 2.558594 8.855469 2.703125 C 7.921875 1.988281 6.761719 1.5625 5.5 1.5625 C 2.464844 1.5625 0 4.015625 0 7.03125 C 0 8.285156 0.425781 9.4375 1.144531 10.359375 C 1 11.046875 0.914062 11.773438 0.914062 12.5 C 0.914062 18.042969 5.425781 22.523438 10.996094 22.523438 C 11.726562 22.523438 12.453125 22.441406 13.144531 22.296875 C 14.078125 23.007812 15.238281 23.433594 16.496094 23.433594 C 19.53125 23.433594 21.996094 20.980469 21.996094 17.964844 C 22 16.714844 21.574219 15.5625 20.855469 14.640625 Z M 11.300781 19.105469 C 8.078125 19.105469 5.382812 17.679688 5.382812 15.933594 C 5.382812 15.152344 5.824219 14.4375 6.832031 14.4375 C 8.363281 14.4375 8.503906 16.632812 11.15625 16.632812 C 12.417969 16.632812 13.234375 16.074219 13.234375 15.347656 C 13.234375 14.433594 12.449219 14.292969 11.171875 13.980469 C 8.101562 13.226562 5.386719 12.90625 5.386719 9.722656 C 5.386719 6.832031 8.265625 5.761719 10.746094 5.761719 C 13.449219 5.761719 16.1875 6.832031 16.1875 8.464844 C 16.1875 9.292969 15.625 10.019531 14.699219 10.019531 C 13.308594 10.019531 13.265625 8.382812 11.015625 8.382812 C 9.753906 8.382812 8.953125 8.726562 8.953125 9.484375 C 8.953125 10.449219 9.972656 10.546875 12.34375 11.09375 C 14.378906 11.546875 16.800781 12.402344 16.800781 14.882812 C 16.800781 17.769531 13.996094 19.105469 11.300781 19.105469 Z M 11.300781 19.105469 "/>
</g>
</svg>
