<?xml version="1.0" encoding="UTF-8"?>
<svg xmlns="http://www.w3.org/2000/svg" xmlns:xlink="http://www.w3.org/1999/xlink" width="22pt" height="25pt" viewBox="0 0 22 25" version="1.1">
<g id="surface1">
<path style=" stroke:none;fill-rule:nonzero;fill:white;fill-opacity:1;" d="M 19.644531 1.5625 L 2.355469 1.5625 C 1.054688 1.5625 0 2.613281 0 3.90625 L 0 21.09375 C 0 22.386719 1.054688 23.4375 2.355469 23.4375 L 19.644531 23.4375 C 20.945312 23.4375 22 22.386719 22 21.09375 L 22 3.90625 C 22 2.613281 20.945312 1.5625 19.644531 1.5625 Z M 17.242188 9.316406 C 17.25 9.453125 17.25 9.59375 17.25 9.730469 C 17.25 13.964844 14.011719 18.84375 8.089844 18.84375 C 6.261719 18.84375 4.566406 18.316406 3.144531 17.40625 C 3.402344 17.4375 3.652344 17.445312 3.917969 17.445312 C 5.425781 17.445312 6.8125 16.9375 7.917969 16.078125 C 6.5 16.050781 5.3125 15.125 4.90625 13.859375 C 5.402344 13.929688 5.847656 13.929688 6.359375 13.800781 C 4.886719 13.5 3.78125 12.210938 3.78125 10.65625 L 3.78125 10.617188 C 4.207031 10.855469 4.710938 11 5.234375 11.019531 C 4.335938 10.425781 3.800781 9.425781 3.800781 8.355469 C 3.800781 7.757812 3.957031 7.210938 4.238281 6.738281 C 5.824219 8.679688 8.207031 9.953125 10.878906 10.089844 C 10.421875 7.914062 12.054688 6.152344 14.019531 6.152344 C 14.949219 6.152344 15.78125 6.539062 16.371094 7.164062 C 17.097656 7.027344 17.796875 6.757812 18.414062 6.390625 C 18.175781 7.132812 17.667969 7.757812 17 8.15625 C 17.648438 8.085938 18.277344 7.90625 18.855469 7.65625 C 18.421875 8.296875 17.871094 8.863281 17.242188 9.316406 Z M 17.242188 9.316406 "/>
</g>
</svg>
